PathFileType	4	(x/y/z)	S10_SL_Cal_T01
DataRate	CameraRate	NumFrames	NumMarkers	Units	OrigDataRate	OrigDataStartFrame	OrigNumFrames
240	240	9	51	mm	240	301	2400
Frame#	Time	Sternum			R.Acromium			L.Acromium			Top.Head			R.ASIS			L.ASIS			R.PSIS			L.PSIS			R.Great.Tro			L.Great.Tro			R.Iliac.Crest			L.Iliac.Crest			V.Sacral			R.Thigh.Upper.Post			R.Thigh.Lower.Ant			R.Thigh.Lower.Post			R.Thigh.Upper.Ant			R.Knee.Lat			R.Knee.Med			R.Shank.Upper.Post			R.Shank.Lower.Ant			R.Shank.Lower.Post			R.Shank.Upper.Ant			R.Ankle.Lat			R.Ankle.Med			R.Heel.Upper			R.Heel.Med			R.Heel.Lat			R.Toe.Lat			R.Toe.Med			R.Toe.Tip			L.Thigh.Upper.Post			L.Thigh.Lower.Ant			L.Thigh.Lower.Post			L.Thigh.Upper.Ant			L.Knee.Lat			L.Knee.Med			L.Shank.Upper.Post			L.Shank.Lower.Ant			L.Shank.Lower.Post			L.Shank.Upper.Ant			L.Ankle.Lat			L.Ankle.Med			L.Heel.Upper			L.Heel.Med			L.Heel.Lat			L.Toe.Lat			L.Toe.Med			L.Toe.Tip			Cervical.Spine			Back			
		X1	Y1	Z1	X2	Y2	Z2	X3	Y3	Z3	X4	Y4	Z4	X5	Y5	Z5	X6	Y6	Z6	X7	Y7	Z7	X8	Y8	Z8	X9	Y9	Z9	X10	Y10	Z10	X11	Y11	Z11	X12	Y12	Z12	X13	Y13	Z13	X14	Y14	Z14	X15	Y15	Z15	X16	Y16	Z16	X17	Y17	Z17	X18	Y18	Z18	X19	Y19	Z19	X20	Y20	Z20	X21	Y21	Z21	X22	Y22	Z22	X23	Y23	Z23	X24	Y24	Z24	X25	Y25	Z25	X26	Y26	Z26	X27	Y27	Z27	X28	Y28	Z28	X29	Y29	Z29	X30	Y30	Z30	X31	Y31	Z31	X32	Y32	Z32	X33	Y33	Z33	X34	Y34	Z34	X35	Y35	Z35	X36	Y36	Z36	X37	Y37	Z37	X38	Y38	Z38	X39	Y39	Z39	X40	Y40	Z40	X41	Y41	Z41	X42	Y42	Z42	X43	Y43	Z43	X44	Y44	Z44	X45	Y45	Z45	X46	Y46	Z46	X47	Y47	Z47	X48	Y48	Z48	X49	Y49	Z49	X50	Y50	Z50	X51	Y51	Z51	

301	1.25	782.98	1305.5	328.29	636.07	1447.6	479.62	639.3	1480.3	174.29	661.87	1774	348.69	733.94	1005.9	435.38	737.16	1025.9	199.8	539.27	1056.9	348.11	546.89	1063.3	266.71	651.7	936.51	504.88	667.31	962.76	139.47	645.54	1098.1	482.45	673.83	1109.5	171.31	515.26	1031	309.98	631.98	727.09	508.19	670.99	639.29	470.23	608.44	640.94	500.91	696.58	727.13	472.82	584.07	517.21	464.01	573.39	515.58	336.91	514.03	296.81	475.89	584.25	237.68	466.14	518.38	222.8	473.45	584.86	314.58	468.3	543.63	108.69	455.95	567.07	113.54	380.88	494.17	64.361	406.15	507.93	37.366	380.39	494.65	40.142	440.69	659.78	39.232	508.6	702.22	44.341	404.28	754.97	60.471	454.25	578.16	709.95	118.48	632.97	613.31	133.04	557.04	617.01	128.87	655.96	699.5	125.3	577.92	523.4	130.86	569.56	506.06	258.08	517.45	309.38	116.19	589.46	226.05	130.71	525.42	232.18	123.33	581.67	302.47	123.21	564.95	103.98	135.75	579.74	111.34	220.45	500.46	76.961	176.27	511.9	45.963	209.8	508.35	46.679	145.39	684.69	41.526	109.02	711.59	47.024	215.66	767.1	59.985	169.76	569.26	1506.9	337.15	507	1291.2	317.74
302	1.2542	783	1305.5	328.31	636.12	1447.6	479.65	639.32	1480.3	174.32	661.9	1774	348.73	733.92	1005.9	435.39	737.14	1025.9	199.82	539.25	1056.9	348.12	546.87	1063.3	266.73	651.7	936.51	504.9	667.29	962.76	139.48	645.53	1098.1	482.46	673.81	1109.5	171.33	515.24	1031	310	631.98	727.09	508.2	670.99	639.29	470.23	608.44	640.94	500.92	696.58	727.13	472.82	584.07	517.21	464.01	573.39	515.58	336.92	514.03	296.81	475.89	584.26	237.68	466.14	518.38	222.81	473.46	584.86	314.58	468.3	543.63	108.69	455.95	567.07	113.54	380.88	494.17	64.361	406.15	507.93	37.367	380.39	494.65	40.142	440.69	659.78	39.232	508.6	702.22	44.341	404.28	754.97	60.471	454.25	578.16	709.95	118.49	632.96	613.31	133.05	557.04	617.01	128.88	655.96	699.51	125.31	577.92	523.4	130.87	569.56	506.06	258.09	517.45	309.38	116.2	589.45	226.05	130.71	525.42	232.18	123.33	581.67	302.47	123.21	564.95	103.98	135.75	579.74	111.33	220.45	500.46	76.96	176.27	511.9	45.963	209.8	508.35	46.677	145.39	684.69	41.53	109.02	711.59	47.025	215.66	767.1	59.986	169.76	569.28	1506.9	337.18	507.01	1291.2	317.78
303	1.2583	783.02	1305.5	328.32	636.17	1447.6	479.69	639.34	1480.3	174.34	661.93	1774	348.77	733.91	1005.9	435.39	737.12	1025.9	199.83	539.23	1056.9	348.13	546.85	1063.3	266.75	651.69	936.51	504.91	667.28	962.77	139.49	645.53	1098.1	482.46	673.79	1109.5	171.35	515.22	1031	310.01	631.98	727.09	508.21	670.99	639.29	470.24	608.45	640.94	500.93	696.57	727.13	472.82	584.07	517.21	464.02	573.38	515.58	336.93	514.03	296.81	475.9	584.27	237.67	466.14	518.37	222.81	473.47	584.85	314.57	468.31	543.63	108.69	455.95	567.07	113.54	380.88	494.17	64.36	406.15	507.93	37.368	380.38	494.65	40.142	440.69	659.78	39.233	508.6	702.22	44.34	404.28	754.97	60.471	454.25	578.16	709.95	118.49	632.96	613.31	133.07	557.04	617	128.89	655.96	699.51	125.32	577.92	523.4	130.88	569.56	506.06	258.1	517.45	309.38	116.2	589.45	226.05	130.72	525.42	232.18	123.34	581.67	302.47	123.22	564.95	103.98	135.75	579.74	111.33	220.45	500.46	76.959	176.27	511.9	45.963	209.79	508.34	46.675	145.39	684.69	41.535	109.01	711.59	47.026	215.66	767.1	59.988	169.76	569.31	1506.9	337.22	507.03	1291.2	317.82
304	1.2625	783.03	1305.5	328.33	636.22	1447.6	479.72	639.36	1480.3	174.37	661.96	1774	348.81	733.89	1005.9	435.4	737.1	1025.9	199.84	539.22	1056.9	348.15	546.83	1063.3	266.77	651.68	936.51	504.93	667.26	962.77	139.5	645.52	1098.1	482.47	673.77	1109.5	171.37	515.2	1031	310.03	631.98	727.09	508.22	670.99	639.29	470.24	608.45	640.94	500.94	696.57	727.14	472.83	584.06	517.21	464.03	573.38	515.58	336.93	514.02	296.8	475.9	584.27	237.67	466.15	518.37	222.81	473.47	584.85	314.57	468.31	543.63	108.69	455.95	567.07	113.54	380.88	494.17	64.359	406.15	507.93	37.369	380.38	494.66	40.142	440.69	659.78	39.233	508.6	702.22	44.34	404.28	754.97	60.471	454.25	578.16	709.95	118.5	632.96	613.3	133.08	557.04	617	128.9	655.96	699.51	125.33	577.92	523.39	130.89	569.56	506.06	258.11	517.45	309.38	116.21	589.45	226.05	130.72	525.42	232.18	123.34	581.67	302.47	123.22	564.95	103.98	135.75	579.74	111.33	220.45	500.46	76.958	176.27	511.9	45.963	209.79	508.34	46.673	145.39	684.69	41.54	109.01	711.59	47.027	215.66	767.1	59.99	169.75	569.34	1506.9	337.26	507.04	1291.3	317.86
305	1.2667	783.05	1305.5	328.35	636.27	1447.6	479.75	639.37	1480.3	174.39	661.99	1774	348.86	733.88	1006	435.41	737.08	1025.9	199.85	539.2	1056.9	348.16	546.81	1063.3	266.78	651.67	936.52	504.94	667.24	962.77	139.51	645.51	1098.1	482.48	673.75	1109.5	171.38	515.18	1031	310.05	631.98	727.09	508.23	670.99	639.29	470.25	608.45	640.94	500.94	696.57	727.14	472.83	584.06	517.21	464.04	573.38	515.58	336.94	514.02	296.8	475.9	584.27	237.66	466.15	518.37	222.81	473.48	584.85	314.57	468.32	543.63	108.69	455.95	567.07	113.54	380.88	494.17	64.358	406.15	507.93	37.369	380.38	494.66	40.142	440.69	659.78	39.234	508.6	702.22	44.34	404.28	754.96	60.472	454.25	578.15	709.94	118.51	632.96	613.3	133.09	557.04	617	128.91	655.95	699.51	125.34	577.92	523.39	130.89	569.56	506.05	258.12	517.44	309.38	116.21	589.45	226.05	130.72	525.42	232.18	123.34	581.67	302.47	123.23	564.95	103.98	135.75	579.74	111.33	220.45	500.46	76.957	176.27	511.9	45.963	209.79	508.34	46.671	145.39	684.69	41.545	109.01	711.59	47.028	215.66	767.1	59.992	169.75	569.36	1506.9	337.3	507.05	1291.3	317.9
306	1.2708	783.07	1305.4	328.36	636.32	1447.5	479.78	639.39	1480.3	174.42	662.01	1774	348.9	733.86	1006	435.42	737.06	1025.9	199.87	539.18	1056.9	348.17	546.79	1063.3	266.8	651.66	936.52	504.96	667.22	962.78	139.52	645.5	1098.2	482.49	673.73	1109.5	171.4	515.17	1031	310.06	631.97	727.1	508.24	670.99	639.3	470.25	608.45	640.94	500.95	696.56	727.14	472.84	584.06	517.21	464.04	573.38	515.59	336.95	514.02	296.8	475.9	584.27	237.66	466.15	518.37	222.82	473.48	584.84	314.57	468.32	543.63	108.69	455.95	567.07	113.53	380.89	494.17	64.357	406.15	507.93	37.37	380.38	494.66	40.142	440.69	659.78	39.234	508.6	702.22	44.339	404.28	754.96	60.472	454.25	578.15	709.94	118.52	632.96	613.3	133.11	557.04	617	128.91	655.95	699.51	125.35	577.92	523.39	130.9	569.56	506.05	258.13	517.44	309.38	116.22	589.45	226.05	130.72	525.41	232.18	123.35	581.67	302.47	123.23	564.95	103.97	135.75	579.74	111.32	220.44	500.46	76.956	176.27	511.9	45.964	209.79	508.34	46.669	145.39	684.69	41.55	109	711.59	47.03	215.66	767.1	59.994	169.75	569.39	1506.9	337.33	507.06	1291.3	317.94
307	1.275	783.09	1305.4	328.37	636.37	1447.5	479.81	639.4	1480.3	174.44	662.03	1774	348.94	733.84	1006	435.43	737.04	1025.9	199.88	539.16	1056.9	348.18	546.77	1063.3	266.81	651.65	936.52	504.97	667.2	962.78	139.53	645.49	1098.2	482.5	673.71	1109.5	171.42	515.15	1031	310.07	631.96	727.1	508.25	670.99	639.3	470.26	608.45	640.94	500.96	696.56	727.15	472.85	584.06	517.21	464.05	573.38	515.59	336.95	514.01	296.79	475.9	584.27	237.66	466.16	518.36	222.82	473.49	584.84	314.57	468.33	543.63	108.69	455.96	567.07	113.53	380.89	494.17	64.357	406.15	507.93	37.37	380.38	494.66	40.142	440.69	659.78	39.235	508.6	702.22	44.339	404.28	754.96	60.473	454.25	578.15	709.94	118.53	632.96	613.3	133.12	557.04	617	128.92	655.95	699.51	125.37	577.92	523.39	130.91	569.56	506.05	258.14	517.44	309.38	116.22	589.45	226.05	130.72	525.41	232.18	123.35	581.66	302.47	123.23	564.95	103.97	135.75	579.74	111.32	220.44	500.45	76.955	176.27	511.9	45.964	209.79	508.34	46.668	145.39	684.69	41.553	109	711.59	47.031	215.66	767.1	59.996	169.75	569.42	1506.9	337.37	507.08	1291.3	317.98
308	1.2792	783.11	1305.4	328.39	636.42	1447.5	479.84	639.42	1480.3	174.47	662.05	1774	348.98	733.82	1006	435.44	737.02	1025.9	199.89	539.14	1056.9	348.19	546.75	1063.3	266.83	651.63	936.52	504.99	667.18	962.78	139.54	645.48	1098.2	482.5	673.69	1109.5	171.43	515.13	1031	310.09	631.95	727.11	508.26	670.98	639.3	470.27	608.45	640.94	500.97	696.55	727.15	472.85	584.05	517.21	464.06	573.38	515.59	336.96	514.01	296.79	475.91	584.27	237.65	466.16	518.36	222.82	473.49	584.83	314.57	468.33	543.63	108.69	455.96	567.07	113.53	380.89	494.17	64.356	406.15	507.93	37.37	380.38	494.66	40.142	440.69	659.78	39.235	508.6	702.22	44.339	404.28	754.96	60.473	454.25	578.15	709.94	118.54	632.96	613.3	133.13	557.04	616.99	128.93	655.95	699.52	125.38	577.92	523.39	130.92	569.56	506.05	258.14	517.44	309.38	116.23	589.44	226.04	130.72	525.41	232.18	123.35	581.66	302.47	123.24	564.95	103.97	135.75	579.74	111.32	220.44	500.45	76.954	176.27	511.9	45.964	209.79	508.34	46.666	145.39	684.69	41.554	109	711.59	47.033	215.66	767.1	59.997	169.75	569.44	1506.9	337.41	507.09	1291.4	318.02
309	1.2833	783.14	1305.4	328.4	636.46	1447.5	479.88	639.43	1480.3	174.49	662.06	1774.1	349.02	733.81	1006	435.45	737	1025.9	199.91	539.12	1056.9	348.2	546.73	1063.3	266.84	651.61	936.52	505	667.16	962.79	139.55	645.47	1098.2	482.51	673.67	1109.6	171.45	515.11	1031	310.1	631.94	727.11	508.27	670.98	639.3	470.28	608.44	640.94	500.97	696.54	727.15	472.86	584.05	517.21	464.06	573.38	515.59	336.96	514	296.79	475.91	584.26	237.65	466.16	518.36	222.82	473.49	584.83	314.57	468.33	543.63	108.69	455.95	567.06	113.53	380.89	494.17	64.356	406.15	507.93	37.37	380.38	494.66	40.142	440.69	659.78	39.235	508.6	702.22	44.338	404.28	754.96	60.473	454.25	578.15	709.94	118.55	632.96	613.3	133.15	557.04	616.99	128.94	655.95	699.52	125.39	577.92	523.39	130.93	569.56	506.05	258.15	517.44	309.38	116.23	589.44	226.04	130.72	525.41	232.18	123.36	581.66	302.47	123.24	564.95	103.97	135.75	579.74	111.32	220.44	500.45	76.953	176.27	511.9	45.965	209.79	508.34	46.665	145.39	684.69	41.554	109	711.59	47.035	215.66	767.1	59.999	169.75	569.47	1506.9	337.45	507.1	1291.4	318.06
